# xmcd
#
# Track frame offsets:
#	150
#	2325
#	23475
#	40725
#	57675
#	94800
#	112200
#	127350
#	144000
#	152550
#	167775
#
# Disc length: 2491 seconds
#
# Revision: 2
# Processed by: cddbd v1.5.1PL2 Copyright (c) Steve Scherf et al.
# Submitted via: EasyCDDAExtractor 6.2.0.3
#
DISCID=8b09b90b
DTITLE=Jerry Jeff Walker and The Gonzo Survivors - Doc Rickett's Lab, Monterey, 
DTITLE=CA (02/18/1991) [CD2]
DYEAR=1991
DGENRE=Country
TTITLE0=Band Intro's
TTITLE1=Night Rider's Lament
TTITLE2=Ro-deo-deo Cowboy
TTITLE3=Just To Celebrate
TTITLE4=I'm All Through Throwing Good Love After Bad
TTITLE5=Charlie Dunn
TTITLE6=Hands On The Wheel
TTITLE7=Trashy Women
TTITLE8=Thanks/Crowd Noise
TTITLE9=Like A Coat From The Cold
TTITLE10=Pick Up The Tempo
EXTD=
EXTT0=
EXTT1=
EXTT2=
EXTT3=
EXTT4=
EXTT5=
EXTT6=
EXTT7=
EXTT8=
EXTT9=
EXTT10=
PLAYORDER=
